<svg width="140" height="161" viewBox="0 0 140 161" fill="none" xmlns="http://www.w3.org/2000/svg">
<path d="M51.7969 160.547C41.25 160.547 32.1094 158.555 24.375 154.57C16.6406 150.508 10.625 145.078 6.32812 138.281C2.10938 131.484 0 124.023 0 115.898V44.6484C0 36.4453 2.10938 28.9844 6.32812 22.2656C10.625 15.4688 16.6406 10.0781 24.375 6.09375C32.1094 2.03125 41.25 0 51.7969 0H87.8906C98.4375 0 107.578 2.03125 115.312 6.09375C123.125 10.0781 129.141 15.4688 133.359 22.2656C137.578 28.9844 139.688 36.4453 139.688 44.6484V115.898C139.688 124.023 137.578 131.484 133.359 138.281C129.141 145.078 123.125 150.508 115.312 154.57C107.578 158.555 98.4375 160.547 87.8906 160.547H51.7969ZM55.8984 107.461C57.4688 107.461 80.1562 107.461 81.5625 107.461C82.9688 107.461 89.4375 106.062 90.7031 106.055C91.9688 106.047 102.305 107.344 102.305 107.344C102.305 107.344 103.641 22.8594 102.305 19.4531C100.969 16.0469 98.4688 13.4893 94.3359 11.9531C90.2031 10.4169 88.2969 10.5469 82.6172 10.5469C76.9375 10.5469 61.4688 10.5469 55.8984 10.5469C50.3281 10.5469 42.1875 12.1875 42.1875 12.1875L45.1172 24.9609C45.1172 24.9609 51.2969 22.7344 56.1328 22.7344C60.9688 22.7344 79.5625 22.5633 82.2656 22.7344C84.9688 22.9055 86.125 23.4688 88.2969 25.2578C90.4688 27.0469 90.9375 30.4688 90.9375 30.4688V57.7734C90.9375 57.7734 84.9688 56.5469 82.6172 56.3672C80.2656 56.1875 59.4688 56.3672 55.8984 56.3672C52.3281 56.3672 47.4688 57.0469 44.1797 58.125C40.8906 59.2031 37.9688 63.0469 36.6797 65.5078C35.3906 67.9688 35.0391 73.4766 35.0391 75.1172C35.0391 76.7578 35.0391 86.1094 35.0391 88.8281C35.0391 91.5469 34.6797 96.2173 36.9688 99.5469C39.2578 102.876 40.7812 104.648 44.1797 106.055C47.5781 107.461 54.3281 107.461 55.8984 107.461ZM56.6016 95.0391C51.7344 95.0391 49.2188 93.8672 49.2188 93.8672C49.2188 93.8672 47.5781 91.125 47.5781 86.8359C47.5781 82.5469 47.5781 80.5469 47.5781 76.7578C47.5781 72.9688 48.5156 70.0781 48.5156 70.0781C48.5156 70.0781 50.7344 68.9062 56.6016 68.9062C62.4688 68.9062 77.4688 68.9062 82.0312 68.9062C86.5938 68.9062 90.9375 69.8438 90.9375 69.8438V93.8672C90.9375 93.8672 85.625 95.0391 81.7969 95.0391C77.9688 95.0391 61.4688 95.0391 56.6016 95.0391Z" fill="#FFEE00"/>
</svg>
